<svg width="1440" height="2891" viewBox="0 0 1440 2891" fill="none" xmlns="http://www.w3.org/2000/svg">
<path opacity="0.025641" d="M666.388 575.176C591.523 503.284 505.549 439.172 418.056 395.632C334.86 354.229 238.871 339.774 166.169 416.471C113.705 471.817 74.6186 547.123 36.495 617.324C-39.1406 756.599 -104.668 903.636 -180.899 1042.62C-234.03 1139.48 -289.08 1236.21 -350.438 1325.28C-423.135 1430.8 -493.19 1539.36 -566.958 1643.74C-671.888 1792.21 -787.259 1934.01 -915.553 2050.77C-1020.43 2146.21 -1141.39 2212.79 -1266.64 2253.42C-1368.37 2286.43 -1475.07 2298.65 -1579.55 2285.08C-1704.99 2268.79 -1819.26 2204.4 -1924.1 2119.38C-2043.08 2022.89 -2141.59 1905.9 -2233.9 1772.33C-2335.22 1625.73 -2440 1482.32 -2535.69 1329.83C-2647.48 1151.69 -2749.02 964.328 -2829.5 760.929C-2915.68 543.104 -2988.58 316.726 -3057.66 89.6471C-3141.72 -186.675 -3222 -464.687 -3306.53 -740.796" stroke="white" stroke-width="3.94872" stroke-linecap="round"/>
<path opacity="0.0512821" d="M724.207 539.01C646.479 472.046 558.17 413.325 469.423 374.952C385.034 338.463 289.391 329.189 221.481 408.526C172.474 465.779 137.724 542.005 103.663 613.151C36.0858 754.303 -21.0964 902.579 -89.2773 1043.47C-136.798 1141.67 -186.222 1239.83 -242.279 1330.77C-308.695 1438.52 -372.342 1549.11 -439.876 1655.78C-535.939 1807.5 -642.668 1953.21 -763.468 2074.9C-862.215 2174.37 -978.364 2246.23 -1100.08 2292.76C-1198.96 2330.55 -1303.8 2348.11 -1407.79 2340.15C-1532.65 2330.59 -1648.95 2273.06 -1756.99 2194.71C-1879.6 2105.8 -1983.03 1995.62 -2081.2 1868.79C-2188.94 1729.58 -2299.93 1593.7 -2402.42 1448.39C-2522.14 1278.64 -2632.21 1099.29 -2722.28 903.033C-2818.74 692.86 -2902.51 473.571 -2982.54 253.394C-3079.92 -14.5292 -3173.65 -284.314 -3271.49 -552.003" stroke="white" stroke-width="3.89744" stroke-linecap="round"/>
<path opacity="0.0769231" d="M780.123 499.487C699.84 437.552 609.523 384.287 519.82 351.091C434.523 319.526 339.503 315.357 276.459 397.047C230.964 455.997 200.539 532.899 170.533 604.761C111.002 747.333 62.1132 896.383 1.97183 1038.73C-39.9451 1137.94 -83.746 1237.22 -134.475 1329.72C-194.579 1439.32 -251.799 1551.58 -313.063 1660.18C-400.208 1814.65 -498.207 1963.74 -611.35 2089.9C-703.84 2193.03 -814.952 2269.86 -932.874 2322.01C-1028.67 2364.38 -1131.4 2387.13 -1234.61 2384.69C-1358.52 2381.76 -1476.44 2331.12 -1587.28 2259.55C-1713.06 2178.32 -1820.97 2075.14 -1924.54 1955.28C-2038.21 1823.73 -2154.93 1695.63 -2263.71 1557.8C-2390.8 1396.78 -2508.84 1225.8 -2607.98 1037.13C-2714.16 835.08 -2808.25 623.39 -2898.7 410.63C-3008.76 151.732 -3115.31 -109.188 -3225.8 -367.832" stroke="white" stroke-width="3.84615" stroke-linecap="round"/>
<path opacity="0.102564" d="M833.967 456.756C751.441 399.932 659.442 352.17 569.08 324.146C483.156 297.498 389.028 298.344 330.909 382.096C288.967 442.536 262.843 519.873 236.873 592.224C185.35 735.765 144.677 885.133 92.5391 1028.48C56.2003 1128.4 18.0028 1228.47 -27.3898 1322.24C-81.1712 1433.33 -131.965 1546.89 -186.945 1657.05C-265.15 1813.76 -354.359 1965.72 -459.713 2095.89C-545.835 2202.3 -651.712 2283.77 -765.586 2341.29C-858.088 2388.02 -958.464 2415.78 -1060.59 2418.76C-1183.21 2422.32 -1302.36 2378.59 -1415.58 2313.86C-1544.06 2240.4 -1656.01 2144.39 -1764.52 2031.73C-1883.62 1908.07 -2005.56 1787.96 -2120.15 1657.86C-2254.02 1505.88 -2379.46 1343.61 -2487.13 1162.92C-2602.43 969.43 -2706.29 765.81 -2806.6 560.946C-2928.67 311.657 -3047.36 60.1931 -3169.84 -188.824" stroke="white" stroke-width="3.79487" stroke-linecap="round"/>
<path opacity="0.128205" d="M885.582 410.977C801.125 359.326 707.77 317.096 617.042 294.22C530.769 272.467 437.794 278.222 384.641 363.75C346.285 425.47 324.421 503.006 302.456 575.623C258.877 719.692 226.32 868.932 182.124 1012.85C151.321 1113.15 118.689 1213.71 78.6246 1308.43C31.156 1420.66 -13.2341 1535.16 -61.9343 1646.54C-131.207 1804.97 -211.596 1959.3 -309.053 2093.02C-388.72 2202.33 -489.184 2288.1 -598.774 2350.71C-687.797 2401.57 -785.57 2434.16 -886.341 2442.43C-1007.33 2452.36 -1127.31 2415.51 -1242.5 2357.68C-1373.23 2292.05 -1488.76 2203.34 -1601.75 2098.05C-1725.77 1982.49 -1852.4 1870.57 -1972.29 1748.43C-2112.35 1605.74 -2244.61 1452.48 -2360.24 1280.15C-2484.07 1095.61 -2597.12 900.492 -2706.72 703.966C-2840.08 464.823 -2970.23 223.361 -3103.99 -15.4924" stroke="white" stroke-width="3.74359" stroke-linecap="round"/>
<path opacity="0.153846" d="M934.82 362.316C848.745 315.882 754.357 279.193 663.551 261.426C577.204 244.531 485.636 255.077 437.475 342.093C402.721 404.886 385.067 482.39 367.062 555.055C331.342 699.219 306.773 847.897 270.435 991.94C245.108 1092.33 217.988 1193.08 183.227 1288.46C142.041 1401.47 104.013 1516.56 61.5674 1628.8C1.19132 1788.45 -70.3758 1944.66 -159.857 2081.45C-233.004 2193.28 -327.897 2283.02 -432.986 2350.42C-518.353 2405.18 -613.295 2442.41 -712.438 2455.84C-831.472 2471.96 -951.895 2441.97 -1068.65 2391.07C-1201.15 2333.3 -1319.82 2252 -1436.82 2154.24C-1565.23 2046.94 -1696.04 1943.37 -1820.72 1829.38C-1966.36 1696.21 -2104.84 1552.21 -2227.86 1388.58C-2359.61 1213.34 -2481.24 1027.13 -2599.53 839.341C-2743.47 610.834 -2884.36 379.875 -3028.68 151.674" stroke="white" stroke-width="3.69231" stroke-linecap="round"/>
<path opacity="0.179487" d="M981.544 310.946C894.163 269.755 799.065 238.598 708.464 225.884C622.312 213.794 532.395 229 489.235 317.218C458.088 380.88 444.581 458.126 430.482 530.626C402.509 674.462 385.781 822.157 357.192 965.907C337.266 1066.1 315.586 1166.73 286.086 1262.48C251.135 1375.93 219.408 1491.26 183.173 1604.01C131.63 1764.4 68.8582 1921.98 -12.5942 2061.39C-79.1776 2175.35 -168.362 2268.71 -268.752 2340.62C-350.301 2399.03 -442.198 2440.69 -539.451 2459.13C-656.217 2481.28 -776.694 2458.09 -894.606 2414.11C-1028.42 2364.2 -1149.77 2290.4 -1270.3 2200.29C-1402.59 2101.4 -1537.06 2006.3 -1666 1900.62C-1816.63 1777.16 -1960.72 1642.66 -2090.54 1488.01C-2229.57 1322.39 -2359.16 1145.44 -2485.54 966.754C-2639.32 749.326 -2790.2 529.322 -2944.34 312.215" stroke="white" stroke-width="3.64103" stroke-linecap="round"/>
<path opacity="0.205128" d="M1025.63 257.046C937.253 221.106 841.762 195.453 751.643 187.721C665.951 180.369 577.918 200.091 539.751 289.23C512.209 353.557 502.772 430.327 492.511 502.455C472.153 645.553 463.096 791.857 442.125 934.903C427.508 1034.6 411.183 1134.83 386.887 1230.66C358.102 1344.21 332.597 1459.44 302.508 1572.37C259.71 1733.01 205.679 1891.48 132.283 2033.05C72.2841 2148.77 -11.0758 2245.41 -106.586 2321.51C-184.171 2383.33 -272.821 2429.2 -367.935 2452.5C-482.132 2480.47 -602.285 2464 -720.955 2426.93C-855.63 2384.86 -979.201 2318.6 -1102.79 2236.26C-1238.43 2145.88 -1376.04 2059.35 -1508.72 1962.1C-1663.71 1848.5 -1812.81 1723.69 -1948.83 1578.28C-2094.51 1422.56 -2231.43 1255.17 -2365.26 1085.92C-2528.12 879.964 -2688.25 671.321 -2851.44 465.7" stroke="white" stroke-width="3.58974" stroke-linecap="round"/>
<path opacity="0.230769" d="M1066.97 200.801C977.9 170.102 882.328 149.907 792.962 147.072C707.986 144.375 622.062 168.458 588.865 258.242C564.91 323.033 559.457 399.115 552.957 470.671C540.06 612.635 538.481 757.154 524.976 899.099C515.564 998.03 504.49 1097.57 485.327 1193.21C462.622 1306.53 443.239 1421.33 419.217 1534.1C385.047 1694.53 339.678 1853.41 274.337 1996.67C220.924 2113.79 143.485 2213.35 53.0165 2293.34C-20.4737 2358.31 -105.691 2408.17 -198.427 2436.15C-309.769 2469.75 -429.227 2459.9 -548.259 2429.69C-683.346 2395.41 -808.686 2336.73 -934.85 2262.21C-1073.33 2180.41 -1213.55 2102.52 -1349.44 2013.81C-1508.18 1910.18 -1661.67 1795.2 -1803.29 1659.25C-1954.96 1513.66 -2098.57 1356.12 -2239.23 1196.58C-2410.39 1002.45 -2578.99 805.519 -2750.46 611.73" stroke="white" stroke-width="3.53846" stroke-linecap="round"/>
<path opacity="0.25641" d="M1105.45 142.401C1016 116.914 920.653 102.115 832.303 104.075C748.292 105.939 664.689 134.217 636.426 224.372C616.03 289.431 614.463 364.622 611.636 435.413C606.025 575.858 611.715 718.218 605.504 858.677C601.174 956.573 595.236 1055.16 581.117 1150.33C564.389 1263.09 551.015 1377.14 532.96 1489.45C507.277 1649.19 470.465 1808.02 413.155 1952.54C366.308 2070.67 294.865 2172.81 209.579 2256.36C140.3 2324.24 58.6869 2377.86 -31.4444 2410.33C-139.658 2449.32 -258.063 2445.98 -377.068 2422.57C-512.123 2396.01 -638.782 2344.9 -767.049 2278.24C-907.833 2205.08 -1050.14 2135.86 -1188.72 2055.75C-1350.61 1962.17 -1507.88 1857.14 -1654.48 1730.83C-1811.48 1595.56 -1961.13 1448.11 -2107.97 1298.52C-2286.65 1116.5 -2462.94 931.597 -2641.91 749.934" stroke="white" stroke-width="3.48718" stroke-linecap="round"/>
<path opacity="0.282051" d="M1141 82.0395C1051.46 61.72 956.636 52.236 869.557 58.8779C786.753 65.1936 705.672 97.49 682.289 187.749C665.414 252.884 667.626 326.988 668.373 396.828C669.856 535.387 682.584 675.228 683.474 813.832C684.094 910.436 683.161 1007.8 673.986 1102.25C663.114 1214.15 655.617 1327.14 643.413 1438.66C626.054 1597.29 597.667 1755.61 548.339 1900.93C508.016 2019.73 442.625 2124.08 362.646 2210.88C297.678 2281.4 219.826 2338.53 132.514 2375.31C27.6834 2419.47 -89.3177 2422.49 -207.914 2405.79C-342.505 2386.84 -470.038 2343.29 -599.935 2284.51C-742.507 2220 -886.388 2159.44 -1027.13 2087.97C-1191.55 2004.48 -1351.98 1909.47 -1502.95 1792.95C-1664.63 1668.16 -1819.66 1530.98 -1972.03 1391.55C-2157.43 1221.89 -2340.63 1049.27 -2526.3 879.976" stroke="white" stroke-width="3.4359" stroke-linecap="round"/>
<path opacity="0.307692" d="M1173.53 19.9131C1084.19 4.69898 990.189 0.434036 904.624 11.6297C823.261 22.2755 744.891 58.405 726.32 148.508C712.919 213.531 718.792 286.362 723.007 355.073C731.37 491.394 750.89 628.375 758.671 764.772C764.094 859.837 768.023 955.736 763.676 1049.2C758.526 1159.94 756.758 1271.57 750.274 1382C741.051 1539.09 720.935 1696.46 679.516 1842.16C645.658 1961.26 586.353 2067.48 511.785 2157.21C451.211 2230.1 377.264 2290.51 292.97 2331.39C191.764 2380.46 76.5048 2389.7 -41.3104 2379.6C-175.016 2368.14 -302.984 2332.09 -434.042 2281.17C-577.888 2225.29 -722.829 2173.37 -865.218 2110.54C-1031.55 2037.15 -1194.54 1952.2 -1349.26 1845.56C-1514.95 1731.37 -1674.72 1604.62 -1831.95 1475.51C-2023.28 1318.41 -2212.58 1158.27 -2404.16 1001.55" stroke="white" stroke-width="3.38462" stroke-linecap="round"/>
<path opacity="0.333333" d="M1202.98 -43.779C1114.14 -53.966 1021.23 -53.124 937.416 -37.515C857.717 -22.6725 782.234 17.0959 768.397 106.79C758.411 171.518 767.817 242.899 775.385 310.313C790.4 444.06 816.448 577.859 830.892 711.713C840.959 805.005 849.595 899.199 849.949 991.44C850.368 1100.73 854.167 1210.71 853.257 1319.77C851.962 1474.9 839.939 1630.9 806.332 1776.55C778.86 1895.61 725.656 2003.36 656.584 2095.69C600.474 2170.69 530.558 2234.12 449.47 2278.88C352.113 2332.61 238.921 2347.89 122.249 2344.26C-10.1597 2340.15 -138.132 2311.52 -269.889 2268.43C-414.502 2221.13 -559.999 2177.79 -703.519 2123.57C-871.179 2060.24 -1036.11 1985.36 -1193.96 1888.68C-1363.01 1785.15 -1526.84 1668.94 -1688.29 1550.28C-1884.75 1405.89 -2079.36 1258.4 -2276.05 1114.39" stroke="white" stroke-width="3.33333" stroke-linecap="round"/>
<path opacity="0.358974" d="M1229.3 -108.835C1141.23 -114.089 1049.69 -108.268 967.854 -88.3977C890.033 -69.5034 817.601 -26.2982 808.402 62.7426C801.764 126.998 814.57 196.761 825.367 262.719C846.788 393.575 879.086 523.89 899.95 654.882C914.492 746.18 927.667 838.442 932.582 929.227C938.407 1036.79 947.596 1144.85 952.098 1252.27C958.502 1405.05 954.375 1559.26 928.46 1704.45C907.276 1823.13 860.17 1932.06 796.659 2026.66C745.067 2103.51 679.294 2169.71 601.584 2218.13C508.284 2276.26 397.47 2297.38 282.291 2300.08C151.578 2303.15 24.0229 2281.84 -107.978 2246.5C-252.86 2207.71 -398.416 2172.86 -542.563 2127.21C-710.954 2073.87 -877.223 2009.02 -1037.6 1922.33C-1209.36 1829.49 -1376.59 1723.9 -1541.6 1615.76C-1742.39 1484.18 -1941.51 1349.44 -2142.51 1218.25" stroke="white" stroke-width="3.28205" stroke-linecap="round"/>
<path opacity="0.384615" d="M1252.45 -175.054C1165.42 -175.484 1075.52 -164.825 995.87 -140.858C920.129 -118.067 850.899 -71.6342 846.233 16.5164C842.866 80.1294 858.928 148.118 872.823 212.468C900.39 340.135 938.648 466.683 965.674 594.514C984.51 683.608 1002.05 773.725 1011.37 862.833C1022.42 968.409 1036.81 1074.3 1046.55 1179.79C1060.41 1329.86 1063.96 1481.89 1045.59 1626.21C1030.58 1744.19 989.552 1853.96 931.649 1950.51C884.613 2028.94 823.079 2097.65 748.906 2149.5C659.852 2211.75 551.715 2238.51 438.368 2247.37C309.733 2257.43 183.007 2243.32 51.2063 2215.64C-93.4549 2185.25 -238.586 2158.78 -382.862 2121.6C-551.404 2078.16 -718.425 2023.27 -880.721 1946.56C-1054.53 1864.42 -1224.51 1769.47 -1392.42 1671.91C-1596.75 1553.18 -1799.59 1431.26 -2004.11 1312.93" stroke="white" stroke-width="3.23077" stroke-linecap="round"/>
<path opacity="0.410256" d="M1272.41 -242.234C1186.67 -237.964 1098.67 -222.622 1021.41 -194.731C947.937 -168.21 882.046 -118.765 881.795 -31.7313C881.614 31.0755 900.782 97.1422 917.638 159.744C951.078 283.942 994.992 406.462 1027.91 530.85C1050.85 617.546 1072.56 705.318 1086.14 792.54C1102.22 895.881 1121.61 999.348 1136.4 1102.68C1157.44 1249.67 1168.43 1399.15 1157.46 1542.22C1148.49 1659.18 1113.49 1769.45 1061.22 1867.63C1018.76 1947.38 961.549 2018.34 891.057 2073.38C806.421 2139.47 701.244 2171.64 590.053 2186.48C463.866 2203.32 338.367 2196.27 207.202 2176.12C63.2384 2154 -80.9949 2135.77 -224.914 2106.95C-393.04 2073.27 -560.232 2028.24 -723.845 1961.48C-899.062 1889.98 -1071.14 1805.68 -1241.32 1718.68C-1448.4 1612.82 -1654.17 1503.73 -1861.41 1398.27" stroke="white" stroke-width="3.17949" stroke-linecap="round"/>
<path opacity="0.435897" d="M1289.16 -310.172C1204.97 -301.339 1119.1 -281.484 1044.41 -249.854C973.397 -219.777 910.968 -167.54 915.002 -81.8406C917.914 -19.9966 940.033 44.0123 959.705 104.734C998.733 225.204 1047.99 343.456 1086.51 464.141C1113.36 548.255 1139.05 633.496 1156.7 718.634C1177.62 819.507 1201.8 920.325 1221.44 1021.26C1249.38 1164.83 1267.55 1311.41 1263.79 1452.86C1260.72 1568.48 1231.69 1678.95 1185.07 1778.42C1147.2 1859.23 1094.37 1932.18 1027.68 1990.18C947.622 2059.81 845.67 2097.16 736.947 2117.77C613.56 2141.17 489.674 2140.99 359.567 2128.24C216.764 2114.24 73.8875 2104.08 -69.2017 2083.47C-236.357 2059.4 -403.153 2024.08 -567.495 1967.19C-743.492 1906.26 -917.03 1832.55 -1088.83 1756.09C-1297.88 1663.05 -1505.81 1566.76 -1715 1474.12" stroke="white" stroke-width="3.12821" stroke-linecap="round"/>
<path opacity="0.461538" d="M1302.7 -378.669C1220.3 -365.424 1136.78 -341.236 1064.86 -306.059C996.46 -272.61 937.602 -217.806 945.783 -133.647C951.686 -72.9154 976.595 -11.0896 998.934 47.6322C1043.25 164.134 1097.53 277.9 1141.36 394.641C1171.91 476.006 1201.37 558.543 1222.93 641.413C1248.46 739.598 1277.21 837.554 1301.49 935.87C1336.04 1075.72 1361.12 1219.05 1364.37 1358.52C1367.02 1472.52 1343.89 1582.85 1302.91 1683.31C1269.62 1764.91 1221.22 1839.59 1158.46 1900.3C1083.11 1973.18 984.635 2015.46 878.675 2041.63C758.422 2071.33 636.522 2077.85 507.882 2072.33C366.689 2066.26 225.612 2063.97 83.8129 2051.41C-81.836 2036.74 -247.683 2010.99 -412.175 1963.85C-588.334 1913.37 -762.701 1850.17 -935.493 1784.17C-1145.76 1703.86 -1355.06 1620.29 -1565.44 1540.38" stroke="white" stroke-width="3.07692" stroke-linecap="round"/>
<path opacity="0.487179" d="M1313.04 -447.526C1232.66 -430.033 1151.71 -401.703 1082.71 -363.181C1017.09 -326.55 961.895 -269.409 974.073 -186.987C982.86 -127.508 1010.39 -67.979 1035.24 -11.3676C1084.55 100.947 1143.51 210.03 1192.34 322.607C1226.38 401.07 1259.41 480.745 1284.68 561.176C1314.61 656.471 1347.69 751.366 1376.4 846.858C1417.24 982.689 1448.94 1122.46 1458.99 1259.61C1467.2 1371.72 1449.87 1481.59 1414.5 1582.72C1385.76 1664.87 1341.84 1741.02 1283.1 1804.18C1212.58 1880.01 1117.81 1926.97 1014.89 1958.46C898.089 1994.2 778.53 2007.21 651.751 2008.72C512.602 2010.37 373.751 2015.75 233.686 2011.04C70.0632 2005.55 -94.2983 1989.15 -258.378 1951.63" stroke="white" stroke-width="3.02564" stroke-linecap="round"/>
<path opacity="0.512821" d="M1068.57 -72.0668C1122.54 35.8629 1185.85 140.089 1239.38 248.303C1276.69 323.724 1313.07 400.394 1341.85 478.227C1375.95 570.445 1413.12 662.099 1446.03 754.576" stroke="white" stroke-width="2.97436" stroke-linecap="round"/>
<path opacity="0.538462" d="M1324.23 -585.542C1248.51 -560.086 1173.3 -524.091 1110.57 -479.508C1050.92 -437.115 1003.29 -375.996 1022.98 -297.588C1037.19 -241.006 1069.45 -186.368 1098.85 -134.266C1157.18 -30.8976 1224.49 68.32 1282.39 171.992C1322.75 244.248 1362.25 317.784 1394.35 392.875C1432.38 481.844 1473.4 570.092 1510.27 659.381C1562.72 786.388 1606.75 918.177 1629.67 1049.73C1648.41 1157.27 1642.33 1265.36 1618.04 1366.91C1598.31 1449.4 1563.36 1527.7 1512.9 1595.02" stroke="white" stroke-width="2.92308" stroke-linecap="round"/>
<path opacity="0.564103" d="M1325.15 -654.322C1252.06 -625.172 1179.99 -585.671 1120.59 -538.386C1064.1 -493.422 1020.34 -430.666 1043.53 -354.513C1060.26 -299.558 1094.62 -247.49 1126.05 -197.765C1188.41 -99.1133 1259.38 -5.03344 1321.33 93.9401C1364.5 162.922 1406.9 233.209 1442.12 305.428C1483.83 390.993 1528.44 475.688 1569.04 561.631C1626.78 683.878 1676.49 811.289 1705.46 939.604C1729.15 1044.5 1728.5 1151.27 1709.64 1252.58C1694.32 1334.88 1663.86 1413.87 1617.62 1482.89" stroke="white" stroke-width="2.87179" stroke-linecap="round"/>
<path opacity="0.589744" d="M1323.04 -722.703C1252.75 -690.064 1183.96 -647.285 1128 -597.521C1074.79 -550.202 1034.93 -486.044 1061.44 -412.293C1080.57 -359.072 1116.85 -309.642 1150.14 -262.362C1216.19 -168.561 1290.47 -79.7259 1356.14 14.414C1401.91 80.027 1446.98 146.967 1485.09 216.196C1530.24 298.219 1578.19 379.23 1622.26 461.685C1684.95 578.972 1740 701.776 1774.75 826.586C1803.16 928.612 1807.78 1033.8 1794.26 1134.59C1783.29 1216.46 1757.29 1295.9 1715.31 1366.35C1664.91 1450.94 1586.95 1513.78 1498.65 1563.98" stroke="white" stroke-width="2.82051" stroke-linecap="round"/>
<path opacity="0.615385" d="M1317.95 -790.508C1250.63 -754.592 1185.27 -708.77 1132.84 -656.757C1082.99 -607.299 1047.07 -541.974 1076.7 -470.761C1098.09 -419.372 1136.12 -372.636 1171.11 -327.858C1240.51 -239.02 1317.75 -155.514 1386.81 -66.3217C1434.93 -4.15707 1482.44 59.3523 1523.24 125.489C1571.57 203.848 1622.6 281.061 1669.9 359.904C1737.17 472.053 1797.23 590.045 1837.47 711.101C1870.37 810.06 1880.1 913.41 1871.82 1013.4C1865.09 1094.62 1843.51 1174.25 1805.82 1245.89C1760.57 1331.9 1687.2 1397.97 1603.08 1452.15" stroke="white" stroke-width="2.76923" stroke-linecap="round"/>
<path opacity="0.641026" d="M1309.97 -857.564C1245.75 -818.591 1183.96 -769.967 1135.14 -715.937C1088.72 -664.56 1056.75 -598.302 1089.32 -529.75C1112.83 -480.28 1152.42 -436.285 1188.93 -394.054C1261.37 -310.269 1341.22 -232.155 1413.32 -148.003C1463.58 -89.3514 1513.29 -29.3422 1556.56 33.6137C1607.82 108.204 1661.66 181.521 1711.92 256.644C1783.42 363.502 1848.14 476.499 1893.58 593.574C1930.73 689.278 1945.38 790.547 1942.21 889.467C1939.64 969.823 1922.43 1049.4 1889.03 1121.97C1848.93 1209.1 1780.29 1278.1 1700.51 1335.96" stroke="white" stroke-width="2.71795" stroke-linecap="round"/>
<path opacity="0.666667" d="M1299.18 -923.707C1238.2 -881.902 1180.08 -830.722 1134.94 -774.908C1092.01 -721.835 1063.98 -654.875 1099.31 -589.093C1124.8 -541.623 1165.77 -500.401 1203.64 -460.753C1278.77 -382.092 1360.87 -309.411 1435.7 -230.37C1487.85 -175.281 1539.54 -118.826 1585.05 -59.1253C1638.97 11.6084 1695.37 80.95 1748.34 152.261C1823.7 253.696 1892.72 361.539 1943.06 474.426C1984.21 566.706 2003.59 665.664 2005.4 763.259C2006.88 842.537 1993.97 921.829 1964.86 995.083C1929.91 1083.03 1866.09 1154.64 1790.8 1215.88C1705.36 1285.37 1610.68 1336.52 1506.51 1380.35" stroke="white" stroke-width="2.66667" stroke-linecap="round"/>
<path opacity="0.692308" d="M1285.68 -988.778C1228.06 -944.373 1173.71 -890.886 1132.29 -833.523C1092.91 -778.976 1068.81 -711.543 1106.67 -648.629C1134 -603.228 1176.18 -564.802 1215.24 -527.761C1292.72 -454.272 1376.75 -387.043 1453.95 -313.164C1507.77 -261.673 1561.19 -208.812 1608.74 -152.427C1665.07 -85.6222 1723.75 -20.3188 1779.18 47.1054C1858.02 143.012 1930.99 245.565 1985.91 354.075C2030.81 442.778 2054.73 539.212 2061.38 635.234C2066.78 713.236 2058.1 792.012 2033.25 865.702C2003.42 954.176 1944.5 1028.08 1873.85 1092.38C1793.66 1165.35 1703.5 1220.75 1603.69 1269.44" stroke="white" stroke-width="2.61538" stroke-linecap="round"/>
<path opacity="0.717949" d="M1269.56 -1052.63C1215.41 -1005.86 1164.9 -950.315 1127.25 -891.638C1091.45 -835.842 1071.24 -768.161 1111.46 -708.198C1140.48 -664.927 1183.68 -629.307 1223.76 -594.887C1303.28 -526.6 1388.87 -464.821 1468.13 -396.134C1523.38 -348.261 1578.31 -299.02 1627.67 -245.997C1686.15 -183.176 1746.85 -121.957 1804.47 -58.4786C1886.44 31.8154 1962.99 128.965 2022.18 232.934C2070.57 317.923 2098.81 411.634 2110.14 505.849C2119.33 582.382 2114.79 660.421 2094.17 734.304C2069.42 823.009 2015.47 898.901 1949.55 965.951C1874.74 1042.05 1789.29 1101.36 1694.06 1154.57" stroke="white" stroke-width="2.5641" stroke-linecap="round"/>
<path opacity="0.74359" d="M1250.96 -1115.11C1200.35 -1066.21 1153.75 -1008.87 1119.89 -949.116C1087.69 -892.294 1071.34 -824.585 1113.7 -767.644C1144.26 -726.553 1188.31 -693.741 1229.25 -661.947C1310.47 -598.868 1397.31 -542.518 1478.29 -479.032C1534.74 -434.785 1590.96 -389.173 1641.9 -339.546C1702.27 -280.747 1764.72 -223.643 1824.29 -164.153C1909.02 -79.5315 1988.78 12.1256 2051.92 111.407C2103.54 192.565 2135.89 283.366 2151.72 375.552C2164.58 450.436 2164.07 527.524 2147.63 601.361C2127.89 690.012 2078.96 767.574 2017.87 837.058C1948.54 915.914 1867.96 978.802 1777.5 1036.19" stroke="white" stroke-width="2.51282" stroke-linecap="round"/>
<path opacity="0.769231" d="M1229.98 -1176.09C1182.99 -1125.31 1140.35 -1066.43 1110.28 -1005.82C1081.68 -948.198 1069.14 -880.677 1113.44 -826.816C1145.4 -787.947 1190.13 -757.932 1231.76 -728.758C1314.36 -670.876 1402.11 -619.912 1484.5 -561.618C1541.92 -520.988 1599.19 -479.004 1651.52 -432.791C1713.51 -378.038 1777.46 -325.062 1838.71 -269.587C1925.83 -190.676 2008.46 -104.579 2075.22 -10.1091C2129.8 67.1154 2166.04 154.838 2186.19 244.785C2202.56 317.85 2205.98 393.781 2193.66 467.34C2178.86 555.658 2134.97 634.578 2078.78 706.176C2015 787.431 1939.42 853.549 1853.91 914.769C1760.05 981.962 1668.02 1051.7 1570.76 1114.73" stroke="white" stroke-width="2.46154" stroke-linecap="round"/>
<path opacity="0.794872" d="M1206.75 -1235.45C1163.43 -1183.03 1124.78 -1122.85 1098.5 -1061.64C1073.51 -1003.43 1064.71 -936.303 1110.74 -885.566C1143.96 -848.953 1189.19 -821.715 1231.36 -795.144C1315.02 -742.428 1403.36 -696.789 1486.84 -643.657C1545.02 -606.625 1603.12 -568.252 1656.61 -525.46C1719.98 -474.759 1785.17 -425.91 1847.85 -374.459C1937 -301.275 2022.13 -220.783 2092.19 -131.228C2149.46 -58.0211 2189.35 26.4693 2213.64 113.98C2233.37 185.067 2240.59 259.643 2232.31 332.7C2222.37 420.413 2183.52 500.378 2132.27 573.771C2074.12 657.062 2003.66 726.062 1923.23 790.753C1834.97 861.755 1748.61 935.172 1656.81 1002.25" stroke="white" stroke-width="2.41026" stroke-linecap="round"/>
<path opacity="0.820513" d="M1181.41 -1293.07C1141.81 -1239.25 1107.17 -1178.04 1084.65 -1116.43C1063.24 -1057.86 1058.1 -991.335 1105.67 -943.754C1140 -909.418 1185.57 -884.927 1228.12 -860.935C1312.53 -813.337 1401.15 -772.942 1485.41 -724.924C1544.13 -691.457 1602.85 -656.664 1657.28 -617.286C1721.77 -570.63 1787.95 -525.89 1851.81 -478.46C1942.64 -410.995 2029.93 -336.132 2102.95 -251.574C2162.65 -182.452 2205.95 -101.333 2234.18 -16.4407C2257.1 52.5193 2268 125.555 2263.68 197.889C2258.48 284.736 2224.66 365.438 2178.4 440.307C2125.9 525.272 2060.64 596.802 1985.43 664.601C1902.89 739.015 1822.34 815.707 1736.14 886.436" stroke="white" stroke-width="2.35897" stroke-linecap="round"/>
<path opacity="0.846154" d="M1154.1 -1348.85C1118.24 -1293.87 1087.6 -1231.87 1068.82 -1170.1C1050.97 -1111.37 1049.4 -1045.65 1098.3 -1001.24C1133.59 -969.201 1179.35 -947.416 1222.12 -925.969C1306.98 -883.42 1395.58 -848.173 1480.31 -805.203C1539.37 -775.254 1598.49 -744 1653.66 -708.016C1719.04 -665.382 1785.95 -624.719 1850.75 -581.291C1942.91 -519.517 2031.99 -450.283 2107.66 -370.785C2169.51 -305.799 2215.99 -228.173 2247.95 -146.069C2273.91 -79.3729 2288.33 -8.05482 2287.86 63.3467C2287.3 149.073 2258.48 230.209 2217.21 306.235C2170.37 392.516 2110.38 466.223 2040.5 536.763C1963.79 614.187 1889.15 693.751 1808.68 767.735C1714.68 854.162 1614.7 934.238 1504.08 1001.06" stroke="white" stroke-width="2.30769" stroke-linecap="round"/>
<path opacity="0.871795" d="M1124.96 -1402.68C1092.85 -1346.79 1066.21 -1284.25 1051.12 -1222.54C1036.77 -1163.86 1038.68 -1099.13 1088.71 -1057.91C1124.82 -1028.16 1170.6 -1009.03 1213.46 -990.09C1298.48 -952.504 1386.76 -922.292 1471.68 -884.286C1530.87 -857.797 1590.18 -830.028 1645.9 -797.407C1711.91 -758.757 1779.33 -722.123 1844.81 -682.663C1937.96 -626.533 2028.5 -562.909 2106.48 -488.512C2170.23 -427.695 2219.64 -353.671 2255.11 -274.508C2283.93 -210.202 2301.74 -140.768 2305.02 -70.5022C2308.96 13.8611 2285.08 95.1312 2248.79 172.002C2207.61 259.241 2152.94 334.772 2088.45 407.687C2017.66 487.717 1949 569.748 1874.37 646.583C1787.18 736.341 1693.82 820.152 1589.39 891.465" stroke="white" stroke-width="2.25641" stroke-linecap="round"/>
<path opacity="0.897436" d="M1094.15 -1454.48C1065.79 -1397.92 1043.1 -1335.09 1031.64 -1273.65C1020.74 -1215.23 1026.03 -1151.66 1076.99 -1113.62C1113.78 -1086.17 1159.44 -1069.64 1202.23 -1053.15C1287.13 -1020.43 1374.82 -995.117 1459.64 -961.976C1518.76 -938.878 1578.07 -914.527 1634.13 -885.225C1700.55 -850.507 1768.23 -817.844 1834.18 -782.303C1927.98 -731.75 2019.63 -673.695 2099.61 -604.421C2165 -547.792 2217.09 -477.459 2255.86 -401.379C2287.36 -339.576 2308.39 -272.182 2315.3 -203.245C2323.59 -120.478 2304.59 -39.365 2273.26 38.0402C2237.71 125.885 2188.38 202.89 2129.33 277.811C2064.52 360.044 2001.89 444.138 1933.16 523.42C1852.87 616.037 1766.25 703.113 1668.17 778.449" stroke="white" stroke-width="2.20513" stroke-linecap="round"/>
<path opacity="0.923077" d="M1061.82 -1504.18C1037.18 -1447.18 1018.41 -1384.3 1010.51 -1323.34C1003 -1265.37 1011.53 -1203.15 1063.24 -1168.27C1100.56 -1143.1 1145.95 -1129.11 1188.55 -1115C1273.06 -1087.03 1359.89 -1066.48 1444.35 -1038.09C1503.21 -1018.3 1562.33 -997.288 1618.53 -971.251C1685.13 -940.402 1752.85 -911.634 1819.03 -879.952C1913.17 -834.888 2005.61 -782.344 2087.27 -718.194C2154.02 -665.755 2208.55 -599.189 2250.4 -526.316C2284.4 -467.119 2308.49 -401.909 2318.89 -334.486C2331.39 -253.535 2317.19 -172.864 2290.77 -95.2295C2260.78 -7.12374 2216.79 71.0055 2163.22 147.567C2104.42 231.599 2047.85 317.354 1985.06 398.679C1911.72 493.683 1831.92 583.553 1740.32 662.449C1642.23 746.94 1547.72 817.444 1442 892.5" stroke="white" stroke-width="2.15385" stroke-linecap="round"/>
</svg>
