<svg width="79" height="76" viewBox="0 0 79 76" fill="none" xmlns="http://www.w3.org/2000/svg">
<g clip-path="url(#clip0_34_70)">
<path d="M47.7194 57.049C47.5372 55.4299 47.3677 53.8108 47.1014 52.2031C46.7993 50.3767 46.3851 48.5465 45.6689 46.8345C45.2573 45.8513 44.8291 44.8822 44.1805 44.0287C43.8517 43.5963 43.5267 43.1588 43.1304 42.7874C42.9201 42.5902 42.6983 42.4058 42.4728 42.2265C40.9983 41.0487 39.4334 39.9905 37.8671 38.9399C36.4781 38.0076 35.0686 37.0982 33.7203 36.1062C33.5954 36.0146 33.4718 35.9217 33.3494 35.8264L33.8656 36.2245C33.7254 36.1163 33.5865 36.0057 33.4514 35.8912C33.2207 35.6432 32.9467 35.4677 32.6307 35.3647C32.3274 35.2057 31.9999 35.1319 31.6481 35.1459C31.2977 35.1332 30.9702 35.2057 30.6656 35.3647C30.3495 35.4677 30.0755 35.6432 29.8449 35.8912C29.3988 36.3758 29.0675 37.013 29.0981 37.6897C29.1287 38.3663 29.3351 39.0544 29.8449 39.4881C30.9205 40.4039 32.1107 41.1937 33.2806 41.9835C34.592 42.8688 35.9148 43.7375 37.2159 44.638C37.8569 45.0818 38.4929 45.5308 39.1109 46.0065L38.5948 45.6084C39.167 46.0497 39.7099 46.5102 40.1547 47.0825L39.7558 46.5674C40.2694 47.2351 40.6644 47.9843 40.9945 48.7563L40.7371 48.1484C41.4545 49.8463 41.8687 51.6638 42.172 53.4763C42.251 53.9507 42.3224 54.4264 42.3874 54.9033L42.2969 54.2267C42.4231 55.1653 42.5161 56.1065 42.6219 57.0464C42.6091 57.3962 42.6818 57.7231 42.8411 58.0271C42.9443 58.3425 43.1202 58.6159 43.3687 58.8462C43.5993 59.0942 43.8733 59.2697 44.1894 59.3727C44.4927 59.5317 44.8202 59.6055 45.1719 59.5915C45.8308 59.5622 46.5151 59.346 46.9739 58.8462L47.3728 58.331C47.6035 57.9342 47.7194 57.5069 47.7207 57.0477L47.7194 57.049Z" fill="#CC1236"/>
<path d="M3.29302 74.2245C7.69602 72.992 12.1232 71.8448 16.5568 70.7294C20.9904 69.6139 25.1131 68.6053 29.3835 67.509C33.8273 66.3681 38.2571 65.1751 42.6588 63.879C47.6162 62.4202 52.5353 60.8341 57.4086 59.1183C63.1752 57.0897 68.8781 54.883 74.5236 52.5414C75.4412 52.1612 76.3574 51.7758 77.2737 51.3891C77.8179 51.1602 78.2971 50.4072 78.4449 49.8692C78.6131 49.26 78.5366 48.4498 78.1875 47.9092C77.8383 47.3687 77.3145 46.8879 76.6646 46.7404L75.9866 46.6501C75.5265 46.6514 75.0983 46.7671 74.7007 46.9973L74.5656 47.0545L75.1748 46.7976C69.4464 49.2091 63.6607 51.4896 57.8087 53.5882C52.882 55.3561 47.908 56.9943 42.8933 58.4989C38.4559 59.8306 33.9879 61.0567 29.5033 62.2205C25.2481 63.3245 20.9777 64.375 16.7136 65.4422C12.331 66.5385 7.95345 67.6565 3.59759 68.8546C3.04451 69.0072 2.49143 69.1599 1.93834 69.315C0.655034 69.6737 -0.267622 71.1326 0.158024 72.4439C0.583669 73.7552 1.91795 74.6061 3.29302 74.2207V74.2245Z" fill="#52AE32"/>
<path d="M51.6968 11.5525C51.5948 11.976 51.4929 12.3996 51.3909 12.8231L50.5613 16.2673C50.1522 17.964 49.7444 19.6607 49.3353 21.3574C48.8345 23.4344 48.335 25.5114 47.8341 27.5884C47.29 29.8485 46.7458 32.1074 46.2016 34.3675C45.6575 36.6276 45.0955 38.9603 44.5424 41.256C44.0288 43.3902 43.5152 45.5232 43.0004 47.6574C42.5658 49.4609 42.1312 51.2645 41.6979 53.068C41.3844 54.3691 41.0709 55.669 40.7587 56.9701C40.6109 57.5819 40.458 58.1937 40.3165 58.8067C40.3101 58.8334 40.3038 58.8601 40.2974 58.8869C40.1929 59.3231 40.435 59.8382 40.8976 59.9425C41.3602 60.0468 41.8432 59.8102 41.9554 59.3435C42.0573 58.9199 42.1593 58.4964 42.2612 58.0728L43.0909 54.6286C43.4999 52.9319 43.9077 51.2352 44.3168 49.5385C44.8176 47.4615 45.3172 45.3845 45.818 43.3076C46.3622 41.0474 46.9064 38.7886 47.4505 36.5284L49.1098 29.6399C49.6234 27.5057 50.1369 25.3728 50.6518 23.2385C51.0864 21.435 51.5209 19.6315 51.9542 17.8279L52.8934 13.9258C53.0413 13.314 53.1942 12.7023 53.3356 12.0892C53.342 12.0625 53.3484 12.0358 53.3548 12.0091C53.4593 11.5728 53.2171 11.0577 52.7545 10.9534C52.2919 10.8491 51.8089 11.0857 51.6968 11.5525Z" fill="#636AAF"/>
<path d="M48.6242 18.4995C48.3503 19.0553 48.0023 19.5806 47.6506 20.0894C47.4416 20.3921 47.2237 20.6884 46.9994 20.9784L47.3983 20.4633C46.5623 21.5419 45.6243 22.5416 44.601 23.4446C44.2556 23.7486 43.9014 24.0411 43.5369 24.3222L44.053 23.9241C43.0042 24.7318 41.8802 25.4402 40.6937 26.0291C40.328 26.211 39.9559 26.3814 39.5799 26.5404L40.1891 26.2834C38.9236 26.8151 37.6059 27.217 36.2589 27.4816C35.8396 27.5642 35.419 27.6329 34.9959 27.6902L35.6739 27.5998C34.6774 27.7334 33.6744 27.797 32.6689 27.797C32.0152 27.797 31.3295 28.0806 30.8669 28.5423C30.6184 28.7725 30.4426 29.046 30.3393 29.3614C30.18 29.6641 30.1061 29.991 30.1201 30.342C30.1495 30.9996 30.3661 31.6826 30.8669 32.1405C31.3678 32.5983 31.9795 32.8858 32.6689 32.8858C34.0899 32.8845 35.5006 32.7421 36.9037 32.5157C37.9793 32.3427 39.0409 32.0845 40.0744 31.7424C42.065 31.0835 43.9906 30.1678 45.7199 28.9786C47.1804 27.9738 48.5542 26.8265 49.761 25.5267C50.6696 24.5473 51.5056 23.4879 52.2448 22.3762C52.5226 21.959 52.7915 21.5317 53.0196 21.084C53.0222 21.0776 53.026 21.0725 53.0285 21.0662C53.2146 20.7737 53.3153 20.4595 53.3306 20.1199C53.407 19.7816 53.3917 19.4433 53.2847 19.1049C53.2057 18.7743 53.054 18.4855 52.8284 18.2401C52.6488 17.9628 52.4104 17.7453 52.1135 17.585C51.5222 17.2734 50.806 17.117 50.1497 17.3281C49.5444 17.524 48.9174 17.9068 48.6268 18.497L48.6242 18.4995Z" fill="#CC1236"/>
<path d="M35.2967 8.31048C34.6136 10.6075 33.9994 12.9261 33.3864 15.2435C32.4905 18.6305 31.6188 22.0239 30.7535 25.4186C29.7378 29.4034 28.7336 33.392 27.7332 37.3806C26.6984 41.5053 25.6687 45.6313 24.6403 49.7573C23.6934 53.5539 22.7465 57.3505 21.7958 61.1458C21.6875 61.5769 21.5805 62.0068 21.4721 62.438C21.309 63.0879 21.3868 63.8154 21.7296 64.398C22.0392 64.9258 22.6446 65.4295 23.2525 65.5668C23.9049 65.7156 24.6377 65.6826 25.2163 65.3099C25.7949 64.9372 26.2243 64.4399 26.3874 63.79C27.3241 60.057 28.2557 56.3215 29.1873 52.5873C30.2157 48.4638 31.2441 44.3404 32.2777 40.2182C33.3112 36.096 34.3001 32.1596 35.3234 28.1328C36.2091 24.6504 37.0999 21.1705 38.0137 17.6957C38.6623 15.227 39.3148 12.7583 40.0247 10.3073C40.0871 10.0924 40.1495 9.87871 40.2133 9.66376C40.3993 9.038 40.2834 8.26215 39.9558 7.70379C39.6462 7.17596 39.0408 6.6723 38.4329 6.53493C37.7805 6.38612 37.0477 6.41919 36.4691 6.79185C35.8905 7.16452 35.4917 7.65928 35.298 8.31175L35.2967 8.31048Z" fill="#CC1236"/>
</g>
<defs>
<clipPath id="clip0_34_70">
<rect width="78.5303" height="76.3129" fill="white"/>
</clipPath>
</defs>
</svg>
