<svg width="160" height="160" viewBox="0 0 160 160" fill="none" xmlns="http://www.w3.org/2000/svg">
<g filter="url(#filter0_d_139_1501)">
<circle cx="80" cy="76" r="50" fill="#330000"/>
</g>
<path d="M54.2734 67.3882L46.0685 59.1242C41.5421 63.6736 39 69.838 39 76.2649C39 82.6918 41.5421 88.8563 46.0685 93.4057L54.3083 85.1417C51.9605 82.7898 50.6384 79.6002 50.6319 76.2722C50.6253 72.9441 51.9349 69.7493 54.2734 67.3882Z" fill="#E8710A"/>
<path d="M46.0684 59.1242L54.2733 67.3882C55.4374 66.2193 56.8198 65.292 58.3415 64.6593C59.8632 64.0266 61.4943 63.701 63.1416 63.701C64.7888 63.701 66.4199 64.0266 67.9416 64.6593C69.4633 65.292 70.8457 66.2193 72.0098 67.3882L77.9802 57.1282L77.6311 56.8481C72.9741 53.3636 67.2225 51.676 61.4273 52.094C55.6321 52.5119 50.1803 55.0073 46.0684 59.1242Z" fill="#F9AB00"/>
<path d="M78.0151 95.4016L72.0098 85.1767C70.8457 86.3456 69.4633 87.2729 67.9416 87.9056C66.4199 88.5382 64.7888 88.8639 63.1416 88.8639C61.4943 88.8639 59.8632 88.5382 58.3415 87.9056C56.8198 87.2729 55.4374 86.3456 54.2733 85.1767L46.0684 93.4407C50.1721 97.5208 55.5964 99.9933 61.3599 100.411C67.1235 100.828 72.8457 99.1632 77.4914 95.7168L77.8755 95.4016" fill="#F9AB00"/>
<path d="M80.3194 59.1242C75.7931 63.6736 73.251 69.838 73.251 76.2649C73.251 82.6918 75.7931 88.8563 80.3194 93.4057L88.5593 85.1417C86.2072 82.7828 84.8859 79.5834 84.8859 76.2474C84.8859 72.9114 86.2072 69.712 88.5593 67.3531C90.9113 64.9942 94.1013 63.669 97.4276 63.669C100.754 63.669 103.944 64.9942 106.296 67.3531L114.571 59.1242C112.323 56.8658 109.654 55.0742 106.715 53.8517C103.777 52.6292 100.626 52 97.445 52C94.2636 52 91.1135 52.6292 88.1749 53.8517C85.2362 55.0742 82.5668 56.8658 80.3194 59.1242Z" fill="#F9AB00"/>
<path d="M114.571 59.1242L106.366 67.3882C108.718 69.7471 110.039 72.9464 110.039 76.2824C110.039 79.6184 108.718 82.8178 106.366 85.1767C104.014 87.5356 100.824 88.8608 97.4978 88.8608C94.1715 88.8608 90.9815 87.5356 88.6295 85.1767L80.3198 93.4407C84.8572 97.996 91.013 100.557 97.433 100.56C100.612 100.562 103.76 99.9355 106.698 98.7169C109.635 97.4984 112.305 95.7114 114.554 93.4582C116.802 91.2049 118.587 88.5295 119.805 85.5846C121.023 82.6397 121.651 79.483 121.652 76.2948C121.654 73.1066 121.029 69.9493 119.814 67.0032C118.599 64.057 116.818 61.3797 114.571 59.1242Z" fill="#E8710A"/>
<defs>
<filter id="filter0_d_139_1501" x="0" y="0" width="160" height="160" filterUnits="userSpaceOnUse" color-interpolation-filters="sRGB">
<feFlood flood-opacity="0" result="BackgroundImageFix"/>
<feColorMatrix in="SourceAlpha" type="matrix" values="0 0 0 0 0 0 0 0 0 0 0 0 0 0 0 0 0 0 127 0" result="hardAlpha"/>
<feOffset dy="4"/>
<feGaussianBlur stdDeviation="15"/>
<feComposite in2="hardAlpha" operator="out"/>
<feColorMatrix type="matrix" values="0 0 0 0 0.2 0 0 0 0 0 0 0 0 0 0 0 0 0 1 0"/>
<feBlend mode="normal" in2="BackgroundImageFix" result="effect1_dropShadow_139_1501"/>
<feBlend mode="normal" in="SourceGraphic" in2="effect1_dropShadow_139_1501" result="shape"/>
</filter>
</defs>
</svg>
