<svg width="33" height="37" viewBox="0 0 33 37" fill="none" xmlns="http://www.w3.org/2000/svg">
<path d="M8.73324 18.5007H24.3777" stroke="black" stroke-width="3.5" stroke-linecap="round" stroke-linejoin="round"/>
<path d="M18.511 25.101L24.3777 18.5007L18.511 11.9005" stroke="black" stroke-width="3.5" stroke-linecap="round" stroke-linejoin="round"/>
<path d="M31.2222 27.2997V32.7999C31.2222 33.3834 31.0161 33.943 30.6494 34.3556C30.2827 34.7682 29.7853 35 29.2666 35H3.84439C3.32574 35 2.82834 34.7682 2.4616 34.3556C2.09486 33.943 1.88883 33.3834 1.88883 32.7999V27.2997" stroke="black" stroke-width="3.5" stroke-linecap="round" stroke-linejoin="round"/>
<path d="M1.88883 9.69888V4.2001C1.88883 3.6166 2.09486 3.05699 2.4616 2.64439C2.82834 2.2318 3.32574 2 3.84439 2L29.2666 2C29.7853 2 30.2827 2.2318 30.6494 2.64439C31.0161 3.05699 31.2222 3.6166 31.2222 4.2001V9.69888" stroke="black" stroke-width="3.5" stroke-linecap="round" stroke-linejoin="round"/>
</svg>
