<svg width="150" height="150" viewBox="0 0 150 150" fill="none" xmlns="http://www.w3.org/2000/svg">
<g filter="url(#filter0_d_113_120)">
<circle cx="75" cy="75" r="45" fill="#336791"/>
</g>
<path d="M103.94 84.9236C103.566 83.7836 102.57 82.9825 101.289 82.787C100.684 82.6981 99.9902 82.7337 99.172 82.9114C97.7487 83.2136 96.6806 83.3215 95.9156 83.3393C98.8333 78.4059 101.218 72.7793 102.57 67.4904C104.776 58.9249 103.603 55.0249 102.214 53.2615C98.5669 48.596 93.2289 46.0849 86.805 46.0138C83.371 45.9782 80.3633 46.6549 78.7979 47.136C77.3391 46.8872 75.7547 46.726 74.1183 46.7082C71.0218 46.6549 68.2995 47.3315 65.9514 48.7204C64.6524 48.2748 62.5885 47.6692 60.1859 47.2782C54.5447 46.3515 50.0071 47.0814 46.6798 49.4148C42.6585 52.2637 40.7899 57.1971 41.1451 64.1059C41.2517 66.2958 42.4796 72.9558 44.4015 79.278C45.5051 82.9114 46.6963 85.9202 47.9064 88.2536C49.6329 91.548 51.5002 93.4714 53.5832 94.1658C54.7578 94.5581 56.875 94.8247 59.0988 92.9725C59.3829 93.3114 59.7571 93.6491 60.2557 93.9703C60.8963 94.3804 61.6612 94.7003 62.4439 94.8958C65.2372 95.5902 67.853 95.4125 70.0958 94.4324C70.1135 94.8247 70.1135 95.2157 70.1313 95.5369C70.149 96.0714 70.1668 96.5881 70.1845 97.0857C70.3089 100.38 70.541 102.962 71.1994 104.744C71.2349 104.85 71.2882 104.992 71.3415 105.154C71.6802 106.169 72.2307 107.878 73.6362 109.214C75.0951 110.602 76.8571 111.012 78.4757 111.012C79.2939 111.012 80.0589 110.906 80.735 110.764C83.1554 110.247 85.9132 109.446 87.9061 106.615C89.7924 103.926 90.6994 99.9016 90.8605 93.526C90.8783 93.3482 90.896 93.1692 90.9138 93.0093C90.9315 92.9026 90.9315 92.7782 90.9493 92.6703L91.3945 92.7059H91.5011C93.9748 92.8125 96.9812 92.2958 98.832 91.4414C100.345 90.7647 105.044 88.2714 103.94 84.9236Z" fill="black"/>
<path d="M99.7226 85.5827C92.3917 87.096 91.8754 84.6039 91.8754 84.6039C99.6161 73.0994 102.855 58.4973 100.06 54.9362C92.4437 45.1951 79.2408 49.8073 79.0276 49.914L78.9566 49.9317C77.5155 49.6296 75.8779 49.4506 74.0639 49.415C70.7365 49.3617 68.2273 50.2872 66.3232 51.7307C66.3232 51.7307 42.7817 42.0251 43.8853 63.9296C44.1162 68.5951 50.5578 99.2073 58.2452 89.9474C61.0562 86.5641 63.7608 83.7152 63.7608 83.7152C65.113 84.6052 66.7152 85.0686 68.4227 84.9086L68.547 84.802C68.5115 85.2298 68.5292 85.6386 68.6003 86.1197C66.6251 88.3275 67.1947 88.7197 63.2445 89.5386C59.241 90.3574 61.589 91.8352 63.1202 92.2275C64.9887 92.6908 69.2941 93.3497 72.1953 89.2707L72.071 89.7341C72.8537 90.3574 73.3877 93.7763 73.2989 96.8752C73.2101 99.9741 73.1391 102.111 73.7619 103.766C74.367 105.423 74.9899 109.18 80.1858 108.059C84.528 107.133 86.7873 104.711 87.1082 100.686C87.3214 97.8197 87.8377 98.2463 87.8732 95.6819L88.2829 94.4707C88.7459 90.5885 88.354 89.3418 91.0407 89.9118L91.6991 89.9652C93.6742 90.054 96.2544 89.6452 97.7665 88.9495C101.004 87.4527 102.926 84.9238 99.7226 85.5827Z" fill="#336791"/>
<path d="M67.6946 66.0294C67.0362 65.9405 66.4311 66.0294 66.1292 66.2427C65.9516 66.3671 65.8983 66.5271 65.8983 66.6172C65.8628 66.8838 66.0581 67.1872 66.1647 67.3472C66.5034 67.7928 66.9829 68.0949 67.4637 68.1483C67.5347 68.166 67.6058 68.166 67.6768 68.166C68.4772 68.166 69.2067 67.5427 69.2599 67.0793C69.3487 66.5283 68.5128 66.136 67.6946 66.0294Z" fill="white"/>
<path d="M89.5983 66.0472C89.5273 65.6016 88.7268 65.4594 87.9619 65.566C87.1969 65.6727 86.4675 66.0116 86.5208 66.4737C86.5741 66.8305 87.1969 67.4348 87.9619 67.4348C88.0329 67.4348 88.0862 67.4348 88.1572 67.417C88.6558 67.3459 89.0287 67.0247 89.2076 66.847C89.474 66.5639 89.6161 66.2617 89.5983 66.0472Z" fill="white"/>
<path d="M102.161 85.405C101.877 84.5506 100.986 84.2827 99.4918 84.6039C95.043 85.5294 93.4599 84.8883 92.9436 84.4973C96.3953 79.2262 99.2431 72.8684 100.773 66.9384C101.502 64.1251 101.894 61.5073 101.93 59.3885C101.965 57.0551 101.573 55.3285 100.755 54.2951C97.4456 50.0752 92.6061 47.7951 86.7163 47.7418C82.6773 47.6885 79.2611 48.7397 78.6027 49.024C77.2149 48.6851 75.6851 48.4718 74.0474 48.4362C71.0219 48.3829 68.3884 49.1129 66.218 50.5906C65.2754 50.2339 62.8373 49.3973 59.8651 48.9161C54.7225 48.0795 50.6301 48.7206 47.7112 50.7861C44.2063 53.244 42.6041 57.6594 42.9073 63.8928C43.0138 65.9939 44.2063 72.4405 46.0926 78.6371C48.5662 86.7748 51.2708 91.387 54.1174 92.3316C54.4561 92.4382 54.829 92.5271 55.2565 92.5271C56.2891 92.5271 57.5703 92.0637 58.8871 90.4793C61.0753 87.8438 63.1215 85.6183 63.8877 84.8159C65.0091 85.4215 66.237 85.7414 67.4814 85.777C67.4814 85.8125 67.4814 85.8481 67.4814 85.8836C67.2328 86.1858 67.0184 86.4359 66.8408 86.6669C65.9693 87.7714 65.7905 88.0025 62.9971 88.5725C62.1967 88.7324 60.0973 89.178 60.0617 90.6558C60.0262 92.2757 62.5532 92.9524 62.8551 93.0247C63.8521 93.2736 64.8302 93.3992 65.755 93.3992C67.9965 93.3992 69.9716 92.6693 71.556 91.2271C71.5027 96.9971 71.7513 102.695 72.4452 104.423C73.0148 105.847 74.4026 109.301 78.7803 109.301C79.4209 109.301 80.1326 109.23 80.9153 109.053C85.4884 108.074 87.4635 106.043 88.2284 101.592C88.6381 99.2048 89.3498 93.5249 89.6695 90.4793C90.3634 90.6926 91.2704 90.7992 92.2497 90.7992C94.2781 90.7992 96.6274 90.3714 98.0862 89.677C99.7227 88.9305 102.695 87.0427 102.161 85.405ZM91.2716 64.8005C91.2539 65.7082 91.1296 66.5106 91.0052 67.365C90.8632 68.2904 90.7211 69.235 90.6856 70.375C90.6501 71.4973 90.7921 72.6538 90.9165 73.7939C91.1828 76.0727 91.4683 78.4061 90.3824 80.7217C90.2226 80.4195 90.0437 80.0984 89.9016 79.7238C89.7595 79.4039 89.4741 78.8695 89.0657 78.1395C87.4825 75.3084 83.7987 68.6662 85.685 65.9583C86.2533 65.1928 87.6944 64.3562 91.2716 64.8005ZM86.9294 49.5572C92.1964 49.6817 96.3598 51.6405 99.2964 55.4161C101.556 58.3005 99.0656 71.4605 91.859 82.805C91.7879 82.7161 91.7169 82.6273 91.6459 82.5384C91.6103 82.5028 91.5926 82.4673 91.5571 82.4318C93.4256 79.3506 93.0514 76.3063 92.7317 73.6174C92.6074 72.5129 92.4653 71.463 92.5009 70.4829C92.5364 69.4318 92.6785 68.5418 92.8028 67.6874C92.9626 66.6185 93.1415 65.5153 93.0869 64.2153C93.1224 64.0731 93.1402 63.9131 93.1224 63.7341C92.9981 62.4874 91.5926 58.7652 88.6914 55.3819C87.1083 53.5296 84.7945 51.4641 81.6447 50.0752C82.997 49.7705 84.8478 49.5039 86.9294 49.5572ZM57.4803 89.305C56.0214 91.0506 55.0244 90.7116 54.6869 90.605C52.5342 89.8928 50.0428 85.3339 47.8368 78.1039C45.9327 71.8528 44.8114 65.566 44.7226 63.8039C44.4384 58.2307 45.7907 54.3485 48.7438 52.2639C53.53 48.8628 61.395 50.8928 64.5625 51.9249C64.5092 51.9782 64.4737 52.0138 64.4204 52.0493C59.2245 57.3039 59.3488 66.2617 59.3666 66.7949C59.3666 67.0082 59.3843 67.3116 59.4021 67.7204C59.4909 69.2337 59.6507 72.0305 59.2068 75.217C58.797 78.1737 59.7053 81.0581 61.6982 83.1414C61.9113 83.3547 62.1257 83.5693 62.3388 83.747C61.466 84.7106 59.5442 86.8294 57.4803 89.305ZM63.0327 81.896C61.4318 80.2215 60.6833 77.8716 61.022 75.4849C61.485 72.1371 61.3239 69.1982 61.2174 67.6316C61.1996 67.4183 61.1996 67.2215 61.1819 67.0615C61.9468 66.3849 65.453 64.4971 67.9609 65.0849C69.1001 65.3515 69.794 66.1183 70.0959 67.4716C71.5902 74.4172 70.2913 77.3016 69.2422 79.6159C69.0291 80.0971 68.8147 80.5414 68.6548 81.0226L68.5128 81.3793C68.1741 82.287 67.8544 83.1427 67.659 83.9615C65.9503 83.9438 64.2949 83.2138 63.0327 81.896ZM63.2813 91.2461C62.7828 91.1217 62.3388 90.9071 62.0711 90.7294C62.2842 90.6228 62.6762 90.4806 63.3701 90.3371C66.662 89.6605 67.1605 89.1793 68.2806 87.7727C68.5293 87.4528 68.8324 87.0782 69.2231 86.6326C69.8105 85.9737 70.0946 86.0804 70.5754 86.2759C70.9674 86.4359 71.3581 86.9348 71.5179 87.487C71.589 87.7536 71.6778 88.2348 71.3936 88.6271C69.0823 91.905 65.7194 91.8504 63.2813 91.2461ZM80.5055 107.29C76.4843 108.145 75.061 106.097 74.1172 103.747C73.5121 102.234 73.2102 95.3949 73.4233 87.845C73.4233 87.7384 73.4055 87.6495 73.3878 87.5607C73.37 87.3829 73.3345 87.2039 73.2812 87.0262C72.9615 85.9217 72.1953 85.014 71.2883 84.6217C70.9141 84.4795 70.2557 84.1939 69.4553 84.3906C69.6329 83.6784 69.9183 82.8774 70.2557 82.0217L70.3978 81.665C70.5576 81.2549 70.7365 80.8283 70.9496 80.3827C72.0355 77.9427 73.5476 74.6127 71.9099 67.0984C71.3048 64.2851 69.2764 62.914 66.1799 63.2161C64.3291 63.4116 62.6394 64.1594 61.8022 64.5872C61.6246 64.6761 61.4457 64.765 61.3036 64.8538C61.5345 62.0228 62.425 56.7161 65.7524 53.3493C67.7986 51.2305 70.5919 50.1793 73.9916 50.2326C80.6819 50.3393 84.9708 53.7759 87.4077 56.6438C89.4893 59.1194 90.6285 61.5949 91.0737 62.9483C87.6753 62.6093 85.3793 63.2682 84.2059 64.9427C81.6612 68.5761 85.5937 75.6448 87.4977 79.0459C87.8364 79.6693 88.1383 80.2037 88.2449 80.4348C88.8678 81.9303 89.6504 82.9281 90.2378 83.6581C90.4154 83.8892 90.5942 84.1037 90.7186 84.2815C89.686 84.5836 87.8542 85.2603 88.014 88.6804C87.872 90.3904 86.9104 98.4393 86.4309 101.288C85.7725 105.047 84.3847 106.454 80.5055 107.29ZM97.3036 88.0405C96.2532 88.5217 94.4925 88.8949 92.8193 88.966C90.9685 89.0549 90.0437 88.7528 89.8116 88.5737C89.705 86.4371 90.5054 86.2226 91.3414 85.9737C91.4657 85.9382 91.6078 85.9027 91.7334 85.8493C91.8044 85.9204 91.8932 85.9737 91.982 86.0271C93.4586 87.0059 96.1099 87.1138 99.847 86.347H99.8825C99.3852 86.8472 98.5315 87.4705 97.3036 88.0405Z" fill="white"/>
<defs>
<filter id="filter0_d_113_120" x="0" y="0" width="150" height="150" filterUnits="userSpaceOnUse" color-interpolation-filters="sRGB">
<feFlood flood-opacity="0" result="BackgroundImageFix"/>
<feColorMatrix in="SourceAlpha" type="matrix" values="0 0 0 0 0 0 0 0 0 0 0 0 0 0 0 0 0 0 127 0" result="hardAlpha"/>
<feOffset/>
<feGaussianBlur stdDeviation="15"/>
<feComposite in2="hardAlpha" operator="out"/>
<feColorMatrix type="matrix" values="0 0 0 0 0.2 0 0 0 0 0.403922 0 0 0 0 0.568627 0 0 0 1 0"/>
<feBlend mode="normal" in2="BackgroundImageFix" result="effect1_dropShadow_113_120"/>
<feBlend mode="normal" in="SourceGraphic" in2="effect1_dropShadow_113_120" result="shape"/>
</filter>
</defs>
</svg>
