<svg width="170" height="170" viewBox="0 0 170 170" fill="none" xmlns="http://www.w3.org/2000/svg">
<g filter="url(#filter0_d_113_20)">
<circle cx="85" cy="85" r="55" fill="white"/>
</g>
<path d="M84.9999 92.2813C89.068 92.2813 92.3659 88.781 92.3659 84.4631C92.3659 80.1453 89.068 76.6449 84.9999 76.6449C80.9317 76.6449 77.6338 80.1453 77.6338 84.4631C77.6338 88.781 80.9317 92.2813 84.9999 92.2813Z" fill="#00D8FF"/>
<path d="M85 102.389C76.1464 102.616 67.3149 101.349 58.8357 98.6359C54.9188 97.3181 51.2656 95.242 48.0606 92.5127C46.8377 91.5804 45.8192 90.3782 45.0751 88.9887C44.3311 87.5993 43.879 86.0554 43.75 84.4631C43.75 79.2937 49.1007 74.2275 58.0637 70.9126C66.7697 67.9753 75.8658 66.5518 85 66.697C94.0123 66.5634 102.987 67.9612 111.583 70.8376C115.355 72.114 118.884 74.0897 122.007 76.6731C123.209 77.562 124.212 78.7206 124.946 80.0668C125.679 81.413 126.124 82.9139 126.25 84.4631C126.25 89.8358 120.269 95.2804 110.634 98.6641C102.319 101.289 93.6738 102.545 85 102.389ZM85 70.4373C76.2612 70.3133 67.5596 71.6666 59.2217 74.4464C50.9717 77.5018 47.2739 81.6798 47.2739 84.4537C47.2739 87.3559 51.2487 91.9186 59.976 95.0865C68.0877 97.6692 76.5338 98.8714 85 98.6485C93.2983 98.806 101.57 97.6142 109.529 95.1146C118.589 91.9279 122.714 87.359 122.714 84.4631C122.566 83.4694 122.224 82.5191 121.712 81.6724C121.2 80.8257 120.528 80.1009 119.738 79.5439C116.944 77.2521 113.792 75.5011 110.425 74.3714C102.201 71.6311 93.6182 70.303 85 70.4373Z" fill="#00D8FF"/>
<path d="M68.2645 123.457C66.89 123.491 65.5317 123.137 64.3281 122.431C60.1088 119.848 58.6474 112.399 60.4182 102.501C62.3706 93.029 65.7536 83.9543 70.4361 75.6286C74.8284 67.2759 80.4515 59.7229 87.0922 53.256C90.0185 50.4249 93.3942 48.1665 97.0629 46.5855C98.3899 45.9255 99.8374 45.5833 101.303 45.5833C102.768 45.5833 104.216 45.9255 105.543 46.5855C109.93 49.2687 111.383 57.4872 109.335 68.0355C107.322 76.9938 104.027 85.5715 99.5645 93.4697C95.3267 101.724 89.8806 109.211 83.4298 115.651C80.3973 118.594 76.8779 120.915 73.0495 122.497C71.5169 123.101 69.8991 123.425 68.2645 123.457ZM73.4886 77.4862C69.0221 85.4586 65.7797 94.1349 63.8832 103.189C62.2538 112.305 63.8184 117.787 66.093 119.182C68.4502 120.63 74.1721 119.257 81.1198 112.815C87.2779 106.645 92.476 99.4778 96.5208 91.5808C100.796 84.03 103.957 75.8291 105.893 67.2631C107.82 57.334 106.156 51.2545 103.793 49.8097C102.907 49.4496 101.96 49.2883 101.013 49.3362C100.066 49.3841 99.138 49.6401 98.2887 50.0881C95.0231 51.5183 92.0208 53.5488 89.4199 56.0862C83.0753 62.2807 77.704 69.5114 73.5092 77.5049L73.4886 77.4862Z" fill="#00D8FF"/>
<path d="M101.727 123.498C97.7346 123.498 92.6638 120.933 87.3838 116.114C80.6267 109.589 74.9085 101.946 70.4507 93.4822C65.8269 85.271 62.4707 76.3276 60.5094 66.991C59.6588 62.8833 59.5012 58.648 60.0439 54.4819C60.1693 52.9364 60.6127 51.4389 61.3427 50.0951C62.0728 48.7513 63.0717 47.5938 64.269 46.7043C68.6504 44.0117 76.0842 46.7794 83.6713 53.9283C89.9784 60.2523 95.3344 67.5655 99.5525 75.6129C104.173 83.6323 107.565 92.3799 109.6 101.529C110.487 105.787 110.624 110.183 110.004 114.494C109.856 116.084 109.386 117.622 108.626 119.001C107.866 120.38 106.835 121.568 105.602 122.485C104.418 123.181 103.08 123.531 101.727 123.498ZM73.5002 91.5995C77.7767 99.688 83.239 107.003 89.682 113.268C96.3085 119.32 101.565 120.621 103.825 119.21C106.182 117.756 107.92 111.821 106.129 102.217C104.166 93.482 100.913 85.132 96.4912 77.4767C92.4659 69.7746 87.3535 62.7719 81.3318 56.7116C74.1897 49.9817 68.397 48.4775 66.0369 49.9286C65.3013 50.563 64.6977 51.3525 64.264 52.2471C63.8304 53.1417 63.5763 54.122 63.5177 55.1261C63.0492 58.8416 63.2018 62.6156 63.9685 66.2748C65.8551 75.2037 69.0739 83.7551 73.5031 91.6058L73.5002 91.5995Z" fill="#00D8FF"/>
<defs>
<filter id="filter0_d_113_20" x="0" y="0" width="170" height="170" filterUnits="userSpaceOnUse" color-interpolation-filters="sRGB">
<feFlood flood-opacity="0" result="BackgroundImageFix"/>
<feColorMatrix in="SourceAlpha" type="matrix" values="0 0 0 0 0 0 0 0 0 0 0 0 0 0 0 0 0 0 127 0" result="hardAlpha"/>
<feOffset/>
<feGaussianBlur stdDeviation="15"/>
<feComposite in2="hardAlpha" operator="out"/>
<feColorMatrix type="matrix" values="0 0 0 0 1 0 0 0 0 1 0 0 0 0 1 0 0 0 1 0"/>
<feBlend mode="normal" in2="BackgroundImageFix" result="effect1_dropShadow_113_20"/>
<feBlend mode="normal" in="SourceGraphic" in2="effect1_dropShadow_113_20" result="shape"/>
</filter>
</defs>
</svg>
