<svg width="160" height="160" viewBox="0 0 160 160" fill="none" xmlns="http://www.w3.org/2000/svg">
<g filter="url(#filter0_d_113_114)">
<circle cx="80" cy="80" r="50" fill="white"/>
</g>
<path d="M80.2336 38C58.6721 38 60.0184 47.4065 60.0184 47.4065L60.0423 57.152H80.618V60.0779H51.8699C51.8699 60.0779 38.0728 58.5037 38.0728 80.3898C38.0728 102.277 50.1153 101.5 50.1153 101.5H57.3022V91.3441C57.3022 91.3441 56.9148 79.2292 69.1525 79.2292H89.56C89.56 79.2292 101.025 79.4156 101.025 68.0815V49.3414C101.025 49.3414 102.767 38 80.2336 38ZM68.8881 44.5536C69.3743 44.5532 69.8559 44.6492 70.3052 44.8362C70.7545 45.0232 71.1627 45.2975 71.5065 45.6433C71.8503 45.9892 72.1229 46.3999 72.3088 46.8519C72.4947 47.3039 72.5901 47.7883 72.5897 48.2774C72.5901 48.7666 72.4947 49.251 72.3088 49.703C72.1229 50.155 71.8503 50.5657 71.5065 50.9115C71.1627 51.2574 70.7545 51.5317 70.3052 51.7187C69.8559 51.9057 69.3743 52.0017 68.8881 52.0012C68.4019 52.0017 67.9204 51.9057 67.4711 51.7187C67.0218 51.5317 66.6136 51.2574 66.2698 50.9115C65.9259 50.5657 65.6533 50.155 65.4674 49.703C65.2816 49.251 65.1861 48.7666 65.1866 48.2774C65.1861 47.7883 65.2816 47.3039 65.4674 46.8519C65.6533 46.3999 65.9259 45.9892 66.2698 45.6433C66.6136 45.2975 67.0218 45.0232 67.4711 44.8362C67.9204 44.6492 68.4019 44.5532 68.8881 44.5536Z" fill="url(#paint0_linear_113_114)"/>
<path d="M80.8459 123C102.407 123 101.061 113.593 101.061 113.593L101.037 103.848H80.4611V100.922H109.209C109.209 100.922 123.006 102.497 123.006 80.6097C123.006 58.7232 110.964 59.4994 110.964 59.4994H103.777V69.6554C103.777 69.6554 104.164 81.7704 91.9266 81.7704H71.5192C71.5192 81.7704 60.0537 81.584 60.0537 92.9184V111.659C60.0537 111.659 58.3126 123 80.8456 123H80.8459ZM92.1913 116.447C91.7051 116.447 91.2236 116.351 90.7743 116.164C90.325 115.977 89.9168 115.703 89.573 115.357C89.2292 115.011 88.9565 114.601 88.7707 114.149C88.5848 113.697 88.4893 113.212 88.4898 112.723C88.4893 112.234 88.5847 111.75 88.7706 111.298C88.9564 110.845 89.229 110.435 89.5729 110.089C89.9167 109.743 90.3249 109.469 90.7742 109.282C91.2235 109.095 91.7051 108.999 92.1913 108.999C92.6776 108.999 93.1591 109.095 93.6084 109.282C94.0577 109.469 94.4659 109.743 94.8097 110.089C95.1535 110.435 95.4262 110.845 95.612 111.297C95.7979 111.749 95.8933 112.234 95.8929 112.723C95.8933 113.212 95.7979 113.696 95.612 114.148C95.4262 114.6 95.1535 115.011 94.8097 115.357C94.4659 115.703 94.0577 115.977 93.6084 116.164C93.1591 116.351 92.6776 116.447 92.1913 116.447V116.447Z" fill="url(#paint1_linear_113_114)"/>
<defs>
<filter id="filter0_d_113_114" x="0" y="0" width="160" height="160" filterUnits="userSpaceOnUse" color-interpolation-filters="sRGB">
<feFlood flood-opacity="0" result="BackgroundImageFix"/>
<feColorMatrix in="SourceAlpha" type="matrix" values="0 0 0 0 0 0 0 0 0 0 0 0 0 0 0 0 0 0 127 0" result="hardAlpha"/>
<feOffset/>
<feGaussianBlur stdDeviation="15"/>
<feComposite in2="hardAlpha" operator="out"/>
<feColorMatrix type="matrix" values="0 0 0 0 1 0 0 0 0 1 0 0 0 0 1 0 0 0 0.25 0"/>
<feBlend mode="normal" in2="BackgroundImageFix" result="effect1_dropShadow_113_114"/>
<feBlend mode="normal" in="SourceGraphic" in2="effect1_dropShadow_113_114" result="shape"/>
</filter>
<linearGradient id="paint0_linear_113_114" x1="46.2348" y1="45.6452" x2="88.5751" y2="87.3126" gradientUnits="userSpaceOnUse">
<stop stop-color="#387EB8"/>
<stop offset="1" stop-color="#366994"/>
</linearGradient>
<linearGradient id="paint1_linear_113_114" x1="72.07" y1="72.5645" x2="117.526" y2="115.279" gradientUnits="userSpaceOnUse">
<stop stop-color="#FFE052"/>
<stop offset="1" stop-color="#FFC331"/>
</linearGradient>
</defs>
</svg>
