<svg width="33" height="37" viewBox="0 0 33 37" fill="none" xmlns="http://www.w3.org/2000/svg">
<path d="M24.2666 18.4993H8.62219" stroke="black" stroke-width="3.5" stroke-linecap="round" stroke-linejoin="round"/>
<path d="M14.4889 11.899L8.62219 18.4993L14.4889 25.0995" stroke="black" stroke-width="3.5" stroke-linecap="round" stroke-linejoin="round"/>
<path d="M1.77783 9.70035L1.77783 4.2001C1.77783 3.6166 1.98386 3.057 2.3506 2.6444C2.71734 2.2318 3.21474 2 3.73339 2L29.1556 2C29.6743 2 30.1717 2.2318 30.5384 2.6444C30.9051 3.057 31.1112 3.6166 31.1112 4.2001V9.70035" stroke="black" stroke-width="3.5" stroke-linecap="round" stroke-linejoin="round"/>
<path d="M31.1112 27.3011V32.7999C31.1112 33.3834 30.9051 33.943 30.5384 34.3556C30.1717 34.7682 29.6743 35 29.1556 35H3.73339C3.21474 35 2.71734 34.7682 2.3506 34.3556C1.98386 33.943 1.77783 33.3834 1.77783 32.7999L1.77783 27.3011" stroke="black" stroke-width="3.5" stroke-linecap="round" stroke-linejoin="round"/>
</svg>
